<svg width="48" height="48" viewBox="0 0 48 48" fill="none" xmlns="http://www.w3.org/2000/svg">
<g clip-path="url(#clip0_2005_543)">
<path d="M37 23.9998H30.064C26.715 23.9998 24 26.7148 24 30.0638V47.4268C24 47.6458 24.26 47.7598 24.421 47.6108L37 35.9998V23.9998Z" fill="#449AFB"/>
<path d="M36.9995 24H30.0635C28.6275 24 27.3085 24.499 26.2695 25.333L36.9995 36V24Z" fill="#003087"/>
<path d="M11 24H17.936C21.285 24 24 21.285 24 17.936V0.574006C24 0.355006 23.74 0.241003 23.579 0.390004L11 12V24Z" fill="#449AFB"/>
<path d="M11 24H17.936C19.372 24 20.691 23.501 21.73 22.667L11 12V24Z" fill="#003087"/>
<path d="M23.9997 37V30.064C23.9997 26.715 21.2847 24 17.9357 24H0.572748C0.353748 24 0.239748 24.26 0.388748 24.421L11.9997 37H23.9997Z" fill="#449AFB"/>
<path d="M24 37V30.064C24 28.628 23.501 27.309 22.667 26.27L12 37H24Z" fill="#003087"/>
<path d="M24 11V17.936C24 21.285 26.715 24 30.064 24H47.426C47.645 24 47.759 23.74 47.61 23.579L36 11H24Z" fill="#449AFB"/>
<path d="M24 11V17.936C24 19.372 24.499 20.691 25.333 21.73L36 11H24Z" fill="#003087"/>
</g>
<defs>
<clipPath id="clip0_2005_543">
<rect width="48" height="48" fill="white" transform="matrix(1 0 0 -1 0 48)"/>
</clipPath>
</defs>
</svg>
